# xmcd CD database file
#
# Track frame offsets:
#	150
#	14952
#	31747
#	47599
#	62750
#	76888
#	94831
#
# Disc length: 1459 seconds
#
# Revision: 0
# Processed by: cddbd v1.5.1PL0 Copyright (c) Steve Scherf et al.
# Submitted via: CDex 1.50
#
DISCID=5105b107
DTITLE=Joyce Ramagatie - Joyce Ramagatie
DYEAR=1900
DGENRE=Country
TTITLE0=Joyce Ramagatie =Show A Brand New Start
TTITLE1=Roy Cost =It's My Memory Thinking
TTITLE2=Joyce Ramagatie =Memories Are All We Have ( Remix )
TTITLE3=Joyce Ramagatie =Memories Are All We Have (Original)
TTITLE4=Joyce Ramagatie =Daddy Was A Country Star
TTITLE5=Joyce Ramagatie =Walking In The Arms Of Jesus ( Remix)
TTITLE6=Joyce Ramagatie =Walking In The Arms Of Jesus (Original )
EXTD=
EXTT0=
EXTT1=
EXTT2=
EXTT3=
EXTT4=
EXTT5=
EXTT6=
PLAYORDER=
